<svg width="91" height="50" viewBox="0 0 91 50" fill="none" xmlns="http://www.w3.org/2000/svg">
<path d="M45.6525 0.0316505C38.9092 0.42542 32.9289 3.20641 28.4005 8.05469C27.3669 9.16216 26.3086 10.4911 26.0379 11.0079C25.5949 11.8939 25.5949 11.9924 25.9641 12.5584C26.3578 13.1737 28.2036 14.6257 28.5974 14.6257C28.6958 14.6257 29.0404 14.3304 29.3357 13.9366C29.631 13.5674 30.7877 12.3861 31.8706 11.2787C36.1528 7.02104 42.1824 4.51077 47.2276 4.85532C54.0447 5.34753 60.5911 8.39923 65.8331 13.5428C66.9406 14.6503 67.8758 15.364 68.1958 15.364C68.4665 15.364 69.254 14.8964 69.9185 14.3304C71.6658 12.8537 71.592 12.4107 69.2294 9.92509C65.2179 5.74129 59.6313 2.36965 54.5369 1.0899C51.2883 0.253145 48.1136 -0.116013 45.6525 0.0316505Z" fill="white"/>
<path d="M0 34.4373V49.5728H2.95326C5.88192 49.5728 5.90653 49.5728 5.90653 49.0068V48.4161L7.26011 49.1052C9.1059 50.0404 10.9271 50.2373 12.9698 49.7205C22.5186 47.3825 23.7738 33.8467 14.8402 29.4906C12.3053 28.2355 8.4168 28.457 6.5464 29.909L5.90653 30.4012V24.8638V19.3018H2.95326H0V34.4373ZM12.0099 34.6834C13.2159 35.2003 14.0034 35.9632 14.5448 37.1445C15.357 38.8918 15.0124 41.4513 13.8311 42.7557C12.7236 43.9862 10.1395 44.5276 8.44141 43.8878C5.53737 42.8049 4.72522 38.2766 6.96478 35.8155C7.67849 35.0526 9.27817 34.3143 10.2872 34.3143C10.7302 34.3143 11.4931 34.4865 12.0099 34.6834Z" fill="white"/>
<path d="M24.1182 34.4373V49.5728H27.0714H30.0247V36.3323C30.0247 29.023 29.9509 22.2304 29.877 21.1968L29.7048 19.3018H26.9238H24.1182V34.4373Z" fill="white"/>
<path d="M68.4175 34.4373V49.5728H71.3707H74.324V46.6687C74.324 43.7647 74.324 43.7647 75.0623 43.051L75.776 42.3619L79.5168 45.9796L83.233 49.5728H86.9492H90.69L85.2265 44.0846L79.7383 38.6211L84.7835 33.9697C87.5645 31.4102 89.8286 29.2198 89.8286 29.0968C89.8286 28.9983 88.3028 28.8999 86.457 28.8999H83.0607L78.7539 32.936L74.4471 36.9722L74.3732 28.137L74.324 19.3018H71.3707H68.4175V34.4373Z" fill="white"/>
<path d="M51.9773 29.0968C51.2882 29.3675 50.4761 29.7613 50.23 29.9828C49.7624 30.4011 49.7378 30.4011 49.6639 29.7121L49.5901 29.023H46.7599H43.9297L43.8559 39.2856L43.8066 49.5728H46.7353H49.6886L49.7624 43.4693L49.8362 37.3413L50.5499 36.4307C52.8141 33.4529 56.8994 33.6743 58.3515 36.8983C58.7452 37.7597 58.8191 38.5965 58.8191 43.7154V49.5728H61.6493H64.4795V43.3217C64.4795 37.8827 64.4303 36.8737 64.0119 35.5694C63.1505 32.7638 61.5016 30.7457 58.9913 29.4659C57.2686 28.58 53.9462 28.4077 51.9773 29.0968Z" fill="white"/>
<path d="M34.1347 29.0476C34.0362 29.146 33.9624 33.7974 33.9624 39.4086V49.5728H36.9157H39.8689L39.8197 39.2856L39.7459 29.023L37.0141 28.9491C35.5375 28.9245 34.2331 28.9737 34.1347 29.0476Z" fill="white"/>
</svg>
